<?xml version="1.0" encoding="UTF-8" standalone="no"?>
<svg
   xmlns:dc="http://purl.org/dc/elements/1.1/"
   xmlns:cc="http://creativecommons.org/ns#"
   xmlns:rdf="http://www.w3.org/1999/02/22-rdf-syntax-ns#"
   xmlns:svg="http://www.w3.org/2000/svg"
   xmlns="http://www.w3.org/2000/svg"
   xmlns:sodipodi="http://sodipodi.sourceforge.net/DTD/sodipodi-0.dtd"
   xmlns:inkscape="http://www.inkscape.org/namespaces/inkscape"
   version="1.1"
   id="svg82"
   xml:space="preserve"
   width="160"
   height="160"
   viewBox="0 0 160 160"
   sodipodi:docname="ico2.svg"
   inkscape:version="1.0.1 (3bc2e813f5, 2020-09-07)"><metadata
     id="metadata88"><rdf:RDF><cc:Work
         rdf:about=""><dc:format>image/svg+xml</dc:format><dc:type
           rdf:resource="http://purl.org/dc/dcmitype/StillImage" /><dc:title></dc:title></cc:Work></rdf:RDF></metadata><defs
     id="defs86"><clipPath
       clipPathUnits="userSpaceOnUse"
       id="clipPath100"><path
         d="M 0,120 H 120 V 0 H 0 Z"
         id="path98" /></clipPath></defs><sodipodi:namedview
     pagecolor="#ffffff"
     bordercolor="#666666"
     borderopacity="1"
     objecttolerance="10"
     gridtolerance="10"
     guidetolerance="10"
     inkscape:pageopacity="0"
     inkscape:pageshadow="2"
     inkscape:window-width="1059"
     inkscape:window-height="837"
     id="namedview84"
     showgrid="false"
     inkscape:zoom="4.59375"
     inkscape:cx="80"
     inkscape:cy="80"
     inkscape:window-x="0"
     inkscape:window-y="0"
     inkscape:window-maximized="0"
     inkscape:current-layer="g90" /><g
     id="g90"
     inkscape:groupmode="layer"
     inkscape:label="monet ikoonid"
     transform="matrix(1.3333333,0,0,-1.3333333,0,160)"><g
       id="g94"
       style="fill:#ffffff"><g
         id="g96"
         clip-path="url(#clipPath100)"
         style="fill:#ffffff"><g
           id="g102"
           transform="translate(51.0459,38.957)"
           style="fill:#ffffff"><path
             d="m 0,0 c -0.523,0 -1.045,0.2 -1.444,0.599 -0.798,0.797 -0.798,2.09 0,2.888 l 17.192,17.192 -17.92,17.92 c -0.798,0.797 -0.798,2.09 0,2.888 0.798,0.799 2.091,0.798 2.889,0 L 20.081,22.123 c 0.383,-0.383 0.598,-0.902 0.598,-1.444 0,-0.542 -0.215,-1.062 -0.598,-1.445 L 1.444,0.599 C 1.045,0.2 0.522,0 0,0"
             style="fill:#ffffff;fill-opacity:1;fill-rule:nonzero;stroke:none"
             id="path104" /></g></g></g></g></svg>
