<?xml version="1.0" encoding="UTF-8" standalone="no"?>
<svg
   xmlns:dc="http://purl.org/dc/elements/1.1/"
   xmlns:cc="http://creativecommons.org/ns#"
   xmlns:rdf="http://www.w3.org/1999/02/22-rdf-syntax-ns#"
   xmlns:svg="http://www.w3.org/2000/svg"
   xmlns="http://www.w3.org/2000/svg"
   xmlns:sodipodi="http://sodipodi.sourceforge.net/DTD/sodipodi-0.dtd"
   xmlns:inkscape="http://www.inkscape.org/namespaces/inkscape"
   version="1.1"
   id="svg10"
   xml:space="preserve"
   width="160"
   height="160"
   viewBox="0 0 160 160"
   sodipodi:docname="ico1.svg"
   inkscape:version="1.0.1 (3bc2e813f5, 2020-09-07)"><metadata
     id="metadata16"><rdf:RDF><cc:Work
         rdf:about=""><dc:format>image/svg+xml</dc:format><dc:type
           rdf:resource="http://purl.org/dc/dcmitype/StillImage" /><dc:title></dc:title></cc:Work></rdf:RDF></metadata><defs
     id="defs14"><clipPath
       clipPathUnits="userSpaceOnUse"
       id="clipPath28"><path
         d="M 0,120 H 120 V 0 H 0 Z"
         id="path26" /></clipPath></defs><sodipodi:namedview
     pagecolor="#ffffff"
     bordercolor="#666666"
     borderopacity="1"
     objecttolerance="10"
     gridtolerance="10"
     guidetolerance="10"
     inkscape:pageopacity="0"
     inkscape:pageshadow="2"
     inkscape:window-width="1440"
     inkscape:window-height="1054"
     id="namedview12"
     showgrid="false"
     inkscape:zoom="4.59375"
     inkscape:cx="80"
     inkscape:cy="80"
     inkscape:window-x="0"
     inkscape:window-y="0"
     inkscape:window-maximized="0"
     inkscape:current-layer="g18" /><g
     id="g18"
     inkscape:groupmode="layer"
     inkscape:label="monet ikoonid"
     transform="matrix(1.3333333,0,0,-1.3333333,0,160)"><g
       id="g22"
       style="fill:#ffffff"><g
         id="g24"
         clip-path="url(#clipPath28)"
         style="fill:#ffffff"><g
           id="g30"
           transform="translate(74.2998,39.8828)"
           style="fill:#ffffff"><path
             d="m 0,0 c -1.104,0 -2,0.896 -2,2 v 12.64 c 0,6.782 -5.518,12.3 -12.3,12.3 -6.782,0 -12.301,-5.518 -12.301,-12.3 V 2 c 0,-1.104 -0.895,-2 -2,-2 -1.104,0 -2,0.896 -2,2 v 12.64 c 0,8.988 7.313,16.3 16.301,16.3 8.988,0 16.3,-7.312 16.3,-16.3 V 2 C 2,0.896 1.104,0 0,0"
             style="fill:#ffffff;fill-opacity:1;fill-rule:nonzero;stroke:none"
             id="path32" /></g><g
           id="g34"
           transform="translate(78.1895,33.1416)"
           style="fill:#ffffff"><path
             d="m 0,0 h -36.379 c -1.104,0 -2,0.896 -2,2 0,1.104 0.896,2 2,2 H 0 C 1.104,4 2,3.104 2,2 2,0.896 1.104,0 0,0"
             style="fill:#ffffff;fill-opacity:1;fill-rule:nonzero;stroke:none"
             id="path36" /></g><g
           id="g38"
           transform="translate(60,73.5889)"
           style="fill:#ffffff"><path
             d="m 0,0 c -1.104,0 -2,0.896 -2,2 v 9.27 c 0,1.104 0.896,2 2,2 1.104,0 2,-0.896 2,-2 V 2 C 2,0.896 1.104,0 0,0"
             style="fill:#ffffff;fill-opacity:1;fill-rule:nonzero;stroke:none"
             id="path40" /></g><g
           id="g42"
           transform="translate(38.9336,52.5225)"
           style="fill:#ffffff"><path
             d="m 0,0 h -9.27 c -1.104,0 -2,0.896 -2,2 0,1.104 0.896,2 2,2 H 0 C 1.104,4 2,3.104 2,2 2,0.896 1.104,0 0,0"
             style="fill:#ffffff;fill-opacity:1;fill-rule:nonzero;stroke:none"
             id="path44" /></g><g
           id="g46"
           transform="translate(90.3359,52.5225)"
           style="fill:#ffffff"><path
             d="m 0,0 h -9.27 c -1.104,0 -2,0.896 -2,2 0,1.104 0.896,2 2,2 H 0 C 1.104,4 2,3.104 2,2 2,0.896 1.104,0 0,0"
             style="fill:#ffffff;fill-opacity:1;fill-rule:nonzero;stroke:none"
             id="path48" /></g><g
           id="g50"
           transform="translate(74.2998,67.1719)"
           style="fill:#ffffff"><path
             d="m 0,0 c -0.512,0 -1.023,0.195 -1.414,0.586 -0.781,0.781 -0.781,2.048 0,2.828 l 4.328,4.328 c 0.781,0.781 2.047,0.781 2.828,0 0.781,-0.78 0.781,-2.047 0,-2.828 L 1.414,0.586 C 1.023,0.195 0.512,0 0,0"
             style="fill:#ffffff;fill-opacity:1;fill-rule:nonzero;stroke:none"
             id="path52" /></g><g
           id="g54"
           transform="translate(44.5078,67.1719)"
           style="fill:#ffffff"><path
             d="m 0,0 c -0.512,0 -1.023,0.195 -1.414,0.586 l -4.328,4.328 c -0.781,0.781 -0.781,2.048 0,2.828 0.781,0.781 2.047,0.781 2.828,0 L 1.414,3.414 C 2.195,2.634 2.195,1.367 1.414,0.586 1.023,0.195 0.512,0 0,0"
             style="fill:#ffffff;fill-opacity:1;fill-rule:nonzero;stroke:none"
             id="path56" /></g></g></g></g></svg>
